<?xml version="1.0" standalone="no"?>
<!DOCTYPE svg PUBLIC "-//W3C//DTD SVG 20010904//EN"
 "http://www.w3.org/TR/2001/REC-SVG-20010904/DTD/svg10.dtd">
<svg version="1.0" xmlns="http://www.w3.org/2000/svg"
 width="725.000000pt" height="725.000000pt" viewBox="0 0 725.000000 725.000000"
 preserveAspectRatio="xMidYMid meet">
<metadata>
Created by potrace 1.11, written by Peter Selinger 2001-2013
</metadata>
<g transform="translate(0.000000,725.000000) scale(0.100000,-0.100000)"
fill="#000000" stroke="none">
<path d="M3531 7200 c-46 -28 -86 -50 -88 -50 -2 0 -52 -29 -111 -64 -59 -35
-126 -74 -149 -87 -55 -31 -813 -467 -833 -479 -28 -18 -288 -166 -380 -218
-25 -14 -61 -35 -80 -47 -40 -25 -329 -193 -405 -235 -47 -26 -152 -87 -692
-402 -117 -67 -234 -137 -260 -153 l-48 -30 1 -210 c1 -116 2 -927 3 -1802 1
-1560 1 -1593 20 -1610 34 -31 50 -43 57 -43 4 0 30 -14 58 -32 56 -34 75 -45
221 -128 55 -31 227 -131 383 -221 156 -90 305 -176 330 -190 26 -14 171 -97
322 -184 151 -87 284 -163 295 -169 11 -6 52 -30 90 -53 39 -22 133 -77 210
-121 77 -43 172 -98 210 -120 90 -51 416 -237 475 -270 25 -14 83 -48 130 -75
206 -119 331 -187 345 -187 9 0 32 11 53 23 20 13 91 54 157 91 66 38 145 83
175 101 30 18 138 80 240 138 210 119 394 225 525 302 50 29 106 62 125 73 19
11 67 38 107 61 39 22 87 49 106 60 19 10 45 25 58 33 13 7 26 16 29 19 4 4
83 50 273 158 48 27 254 147 277 161 43 26 242 141 285 165 43 24 241 138 285
165 8 5 103 59 210 121 107 62 203 119 213 127 17 15 17 101 12 1820 -3 992
-8 1808 -10 1812 -3 5 -36 25 -73 46 -37 20 -135 77 -219 125 -83 49 -167 97
-185 108 -59 34 -752 433 -783 451 -91 52 -404 231 -490 280 -131 74 -482 277
-580 334 -42 26 -79 46 -81 46 -2 0 -34 18 -70 40 -36 22 -68 40 -71 40 -3 0
-53 29 -112 63 -58 35 -137 81 -176 102 -76 41 -163 92 -236 137 -25 15 -50
28 -55 28 -5 0 -47 -23 -93 -50z m209 -1315 c228 -40 389 -125 561 -295 105
-104 173 -198 243 -337 78 -154 141 -380 164 -581 8 -71 8 -74 -12 -69 -40 10
-231 69 -235 73 -2 2 -10 41 -17 88 -42 260 -182 537 -353 698 -165 156 -360
214 -575 174 -240 -46 -439 -153 -553 -298 -122 -156 -195 -303 -263 -533 -47
-157 -60 -562 -26 -765 38 -225 102 -414 207 -615 l47 -90 70 -6 c89 -9 151
-39 208 -103 129 -143 78 -376 -100 -457 -59 -27 -182 -26 -242 1 -58 27 -121
90 -147 149 -27 61 -28 158 -3 228 14 38 17 55 9 65 -17 20 -118 225 -148 298
-113 280 -175 578 -175 848 0 384 120 787 313 1048 192 260 439 418 737 474
120 22 183 23 290 5z m-253 -1252 c53 -28 89 -59 114 -100 l21 -33 154 0 c390
0 799 -113 1119 -309 320 -195 565 -449 705 -729 194 -389 184 -803 -28 -1082
-121 -160 -307 -296 -509 -371 -280 -105 -612 -105 -933 1 -84 27 -190 71
-190 79 0 3 18 18 39 33 22 16 71 55 111 88 39 33 73 60 76 60 2 0 26 -9 54
-20 129 -51 335 -90 469 -90 77 0 208 20 271 40 348 114 577 462 533 808 -44
337 -289 687 -643 917 -344 224 -709 335 -1107 335 l-112 0 -17 -35 c-59 -125
-244 -183 -379 -119 -76 35 -130 100 -157 187 -18 61 -19 76 -9 121 36 161
144 248 301 243 54 -1 86 -8 117 -24z m-1302 -666 c4 -23 18 -78 31 -122 l24
-80 -23 -18 c-319 -261 -485 -626 -422 -928 19 -91 37 -145 71 -212 113 -223
287 -351 554 -408 84 -18 363 -19 450 -1 180 37 295 75 445 150 389 193 673
447 859 767 l49 86 -20 22 c-72 77 -89 217 -41 312 56 108 147 164 263 165
238 0 374 -259 240 -455 -40 -58 -86 -91 -157 -116 -45 -15 -55 -23 -80 -70
-119 -217 -228 -362 -392 -524 -301 -297 -615 -462 -1091 -571 -114 -27 -489
-27 -585 -1 -122 34 -195 60 -275 98 -106 52 -110 54 -213 139 -138 113 -235
281 -288 500 -26 106 -26 384 0 490 58 239 180 457 358 637 86 89 216 195 228
188 4 -3 11 -24 15 -48z"/>
</g>
</svg>
